<?xml version="1.0" encoding="UTF-8"?><svg id="b" xmlns="http://www.w3.org/2000/svg" viewBox="0 0 26.4 27"><defs><style>.d{fill:#000;stroke-width:0px;}</style></defs><g id="c"><path class="d" d="M4.8,14.4V4.2c0-1.66,1.34-3,3-3s3,1.34,3,3v.06c-2.03.29-3.6,2.03-3.6,4.14v1.2h8.4v-1.2c0-2.11-1.57-3.85-3.6-4.14v-.06c0-2.32-1.88-4.2-4.2-4.2S3.6,1.88,3.6,4.2v10.2H0v5.4c0,3.31,2.69,6,6,6h1.2v1.2h1.2v-1.2h9.6v1.2h1.2v-1.2h1.2c3.31,0,6-2.69,6-6v-5.4H4.8ZM14.4,8.4h-6c0-1.66,1.34-3,3-3s3,1.34,3,3ZM25.2,19.8c0,2.65-2.15,4.8-4.8,4.8H6c-2.65,0-4.8-2.15-4.8-4.8v-4.2h24v4.2Z"/></g></svg>