<?xml version="1.0" encoding="UTF-8"?><svg id="b" xmlns="http://www.w3.org/2000/svg" viewBox="0 0 14.93 11.18"><defs><style>.d{fill:#000;stroke-width:0px;}</style></defs><g id="c"><path class="d" d="M0,9.81v.94c0,.24.2.44.44.44s.44-.2.44-.44v-.5h13.18v.5c0,.24.2.44.44.44s.44-.2.44-.44v-2.37H0v1.44ZM13.32,4.69H1.61c-.89,0-1.61.72-1.61,1.61v1.2h14.93v-1.2c0-.89-.72-1.61-1.61-1.61ZM5.83,2.75c-.4,0-.73.33-.73.73v.33h4.75v-.33c0-.4-.33-.73-.73-.73h-3.28ZM4.22,3.48c0-.89.72-1.61,1.61-1.61h3.28c.89,0,1.61.72,1.61,1.61v.33h2.34V1.61c0-.89-.72-1.61-1.61-1.61H3.48c-.89,0-1.61.72-1.61,1.61v2.2h2.34v-.33Z"/></g></svg>