<?xml version="1.0" encoding="UTF-8"?><svg id="b" xmlns="http://www.w3.org/2000/svg" viewBox="0 0 20.12 20.12"><defs><style>.d{fill:#000;stroke-width:0px;}</style></defs><g id="c"><path class="d" d="M8.62,15.09h2.88v5.03h-2.88v-5.03ZM19.41,18.69h-1.44V4.31c0-.43-.29-.72-.72-.72h-.72V.72c0-.43-.29-.72-.72-.72H4.31c-.43,0-.72.29-.72.72v2.88h-.72c-.43,0-.72.29-.72.72v14.38H.72c-.43,0-.72.29-.72.72s.29.72.72.72h6.47v-5.75c0-.43.29-.72.72-.72h4.31c.43,0,.72.29.72.72v5.75h6.47c.43,0,.72-.29.72-.72s-.29-.72-.72-.72ZM14.37,5.75c.43,0,.72.29.72.72v1.44c0,.43-.29.72-.72.72s-.72-.29-.72-.72v-1.44c0-.43.29-.72.72-.72ZM5.75,16.53c0,.43-.29.72-.72.72s-.72-.29-.72-.72v-1.44c0-.43.29-.72.72-.72s.72.29.72.72v1.44ZM6.47,12.22c0,.43-.29.72-.72.72s-.72-.29-.72-.72v-1.44c0-.43.29-.72.72-.72s.72.29.72.72v1.44ZM6.47,7.91c0,.43-.29.72-.72.72s-.72-.29-.72-.72v-1.44c0-.43.29-.72.72-.72s.72.29.72.72v1.44ZM7.19,5.03c-.43,0-.72-.29-.72-.72v-1.44c0-.43.29-.72.72-.72s.72.29.72.72v1.44c0,.43-.29.72-.72.72ZM9.34,12.22c0,.43-.29.72-.72.72s-.72-.29-.72-.72v-1.44c0-.43.29-.72.72-.72s.72.29.72.72v1.44ZM9.34,7.91c0,.43-.29.72-.72.72s-.72-.29-.72-.72v-1.44c0-.43.29-.72.72-.72s.72.29.72.72v1.44ZM10.06,5.03c-.43,0-.72-.29-.72-.72v-1.44c0-.43.29-.72.72-.72s.72.29.72.72v1.44c0,.43-.29.72-.72.72ZM12.22,12.22c0,.43-.29.72-.72.72s-.72-.29-.72-.72v-1.44c0-.43.29-.72.72-.72s.72.29.72.72v1.44ZM12.22,7.91c0,.43-.29.72-.72.72s-.72-.29-.72-.72v-1.44c0-.43.29-.72.72-.72s.72.29.72.72v1.44ZM12.94,5.03c-.43,0-.72-.29-.72-.72v-1.44c0-.43.29-.72.72-.72s.72.29.72.72v1.44c0,.43-.29.72-.72.72ZM13.66,12.22v-1.44c0-.43.29-.72.72-.72s.72.29.72.72v1.44c0,.43-.29.72-.72.72s-.72-.29-.72-.72ZM15.81,16.53c0,.43-.29.72-.72.72s-.72-.29-.72-.72v-1.44c0-.43.29-.72.72-.72s.72.29.72.72v1.44Z"/></g></svg>