<?xml version="1.0" encoding="UTF-8"?><svg id="b" xmlns="http://www.w3.org/2000/svg" viewBox="0 0 15.94 26.25"><defs><style>.d{fill:#000;stroke-width:0px;}</style></defs><g id="c"><path class="d" d="M13.12,0H2.81c-.75,0-1.46.3-1.99.82-.53.53-.82,1.24-.82,1.99v20.62c0,.75.3,1.46.82,1.99.53.53,1.24.82,1.99.82h10.31c.75,0,1.46-.3,1.99-.82.53-.53.82-1.24.82-1.99V2.81c0-.75-.3-1.46-.82-1.99-.53-.53-1.24-.82-1.99-.82ZM14.06,23.44c0,.25-.1.49-.27.66-.18.18-.41.27-.66.27H2.81c-.25,0-.49-.1-.66-.27-.18-.18-.27-.41-.27-.66V2.81c0-.25.1-.49.27-.66.18-.18.41-.27.66-.27h.94c0,.25.1.49.27.66.18.18.41.27.66.27h6.56c.25,0,.49-.1.66-.27.18-.18.27-.41.27-.66h.94c.25,0,.49.1.66.27.18.18.27.41.27.66v20.62Z"/></g></svg>