<?xml version="1.0" encoding="UTF-8"?><svg id="b" xmlns="http://www.w3.org/2000/svg" viewBox="0 0 10.85 18"><defs><style>.d{fill:#000;stroke-width:0px;}</style></defs><g id="c"><path class="d" d="M3.96,1.33h2.93c.38,0,.74-.13,1.02-.38.29-.24.48-.58.54-.95H2.4c.06.37.25.71.54.95.29.24.65.38,1.02.38ZM9.51.01c-.07.65-.37,1.25-.86,1.69-.48.44-1.11.68-1.77.68h-2.93c-.65,0-1.28-.24-1.77-.68C1.71,1.26,1.41.66,1.34.01c-.37.05-.71.23-.96.51C.14.81,0,1.17,0,1.54v14.91c0,.41.16.8.45,1.09.29.29.68.45,1.09.45h7.77c.41,0,.8-.16,1.09-.45.29-.29.45-.68.45-1.09V1.54c0-.37-.14-.74-.38-1.02-.25-.28-.59-.46-.96-.51ZM7.21,16.67h-3.57c-.14,0-.27-.06-.37-.15-.1-.1-.15-.23-.15-.37s.06-.27.15-.37c.1-.1.23-.15.37-.15h3.57c.14,0,.27.06.37.15s.15.23.15.37-.06.27-.15.37-.23.15-.37.15Z"/></g></svg>