<?xml version="1.0" encoding="UTF-8"?><svg id="b" xmlns="http://www.w3.org/2000/svg" viewBox="0 0 13.34 13.33"><defs><style>.d{fill:#000;stroke-width:0px;}</style></defs><g id="c"><path class="d" d="M6.67,0C3,0,0,3,0,6.67,0,8.2.54,9.67,1.54,10.87l-1.33,1.33c-.2.2-.27.47-.13.73.07.27.33.4.6.4h6c3.67,0,6.67-3,6.67-6.67S10.34,0,6.67,0ZM4.67,3.33h4c.4,0,.67.27.67.67s-.27.67-.67.67h-4c-.33,0-.67-.27-.67-.67s.33-.67.67-.67ZM8.67,10h-4c-.4,0-.67-.27-.67-.67s.27-.67.67-.67h4c.4,0,.67.27.67.67s-.27.67-.67.67ZM10,7.33H3.34c-.4,0-.67-.27-.67-.67s.27-.67.67-.67h6.67c.4,0,.67.27.67.67s-.27.67-.67.67Z"/></g></svg>