<?xml version="1.0" encoding="UTF-8"?><svg id="b" xmlns="http://www.w3.org/2000/svg" viewBox="0 0 14.03 17"><defs><style>.d{fill:#000;stroke-width:0px;}</style></defs><g id="c"><path class="d" d="M12.15,0h-7.14c-1.04,0-1.88.84-1.88,1.88v.23h-1.24c-1.04,0-1.88.84-1.88,1.88v11.12c0,1.04.84,1.88,1.88,1.88h7.14c1.04,0,1.88-.84,1.88-1.88v-.23h1.24c1.04,0,1.88-.84,1.88-1.88V1.88c0-1.04-.84-1.88-1.88-1.88ZM9.69,15.12c0,.37-.3.67-.67.67H1.88c-.37,0-.67-.3-.67-.67V3.99c0-.37.3-.67.67-.67h7.14c.37,0,.67.3.67.67v11.12ZM12.82,13.01c0,.37-.3.67-.67.67h-1.24V3.99c0-1.04-.84-1.88-1.88-1.88h-4.68v-.23c0-.37.3-.67.67-.67h7.14c.37,0,.67.3.67.67v11.12Z"/></g></svg>