<?xml version="1.0" encoding="UTF-8"?><svg id="b" xmlns="http://www.w3.org/2000/svg" viewBox="0 0 13 11.43"><defs><style>.d{fill:#000;stroke-width:0px;}</style></defs><g id="c"><path class="d" d="M12.62.76h-1.9v-.38c0-.21-.17-.38-.38-.38s-.38.17-.38.38v.38h-1.93v-.38c0-.21-.17-.38-.38-.38s-.38.17-.38.38v.38h-1.9v-.38c0-.21-.17-.38-.38-.38s-.38.17-.38.38v.38h-1.93c-.21,0-.38.17-.38.38v2.29s0,0,0,0c0,.91-.11,1.78-.34,2.59-.18.65-.43,1.25-.74,1.8-.53.94-1.07,1.4-1.08,1.41-.12.1-.17.27-.11.42.05.15.2.25.36.25h1.9v1.14c0,.21.17.38.38.38h9.95c.21,0,.38-.17.38-.38V1.14c0-.21-.17-.38-.38-.38ZM3.05,1.52h1.55v.38c0,.21.17.38.38.38s.38-.17.38-.38v-.38h1.9v.38c0,.21.17.38.38.38s.38-.17.38-.38v-.38h1.93v.38c0,.21.17.38.38.38s.38-.17.38-.38v-.38h1.52v1.52H3.05v-1.52ZM1.85,8.23c.35-.61.62-1.28.82-1.98.21-.77.32-1.59.35-2.44h9.19c-.03.77-.12,1.52-.31,2.21-.18.65-.43,1.25-.74,1.8-.4.71-.8,1.14-.98,1.32H2.67s0,0,0,0,0,0,0,0h-1.42c.19-.24.4-.54.61-.91ZM3.05,10.66v-.76h7.29c.09,0,.18-.03.24-.09.03-.02.63-.53,1.23-1.58.16-.28.3-.58.43-.88v3.31H3.05ZM10.33,9.9s0,0,0,0h0,0Z"/></g></svg>