<?xml version="1.0" encoding="UTF-8"?><svg id="b" xmlns="http://www.w3.org/2000/svg" viewBox="0 0 7 13"><defs><style>.d{fill:#000;stroke-width:0px;}</style></defs><g id="c"><path class="d" d="M7,8.91c0-1.03-.39-1.84-1.19-2.42-.62-.44-1.37-.67-2.09-.89-1.51-.46-1.95-.71-1.95-1.44,0-.82,1.04-1.11,1.94-1.11.65,0,1.4.21,1.87.51l.92-1.45c-.61-.4-1.44-.67-2.26-.76V0h-1.7v1.45C1.02,1.79.07,2.79.07,4.16c0,.96.39,1.72,1.16,2.25.59.41,1.3.63,1.99.84,1.48.45,2.08.73,2.07,1.65h0c0,.78-1,1.05-1.86,1.05-.81,0-1.7-.36-2.2-.9l-1.24,1.19c.63.68,1.56,1.16,2.53,1.35v1.41h1.7v-1.38c1.68-.24,2.76-1.27,2.76-2.71Z"/></g></svg>