<?xml version="1.0" encoding="UTF-8"?><svg id="b" xmlns="http://www.w3.org/2000/svg" viewBox="0 0 13.59 14.9"><defs><style>.d{fill:#000;stroke-width:0px;}</style></defs><g id="c"><path class="d" d="M13.1,2.43l-1.93-1.93c-.32-.32-.75-.5-1.2-.5H2.45C1.1,0,0,1.1,0,2.45v10c0,1.35,1.1,2.45,2.45,2.45h8.69c1.35,0,2.45-1.1,2.45-2.45V3.63c0-.45-.18-.89-.5-1.2ZM10.53,1.13l1.93,1.93c.15.15.23.36.23.57v.34h-2.01c-.58,0-1.05-.47-1.05-1.05V.9h.33c.21,0,.41.08.57.23ZM11.14,14H2.45c-.85,0-1.55-.7-1.55-1.55V2.45c0-.85.7-1.55,1.55-1.55h6.28v2.02c0,1.07.87,1.95,1.95,1.95h2.01v7.58c0,.85-.7,1.55-1.55,1.55ZM8.45,8.87l-1.2,1.06v-3.47c0-.25-.2-.45-.45-.45s-.45.2-.45.45v3.47l-1.2-1.06c-.19-.16-.47-.15-.64.04s-.15.47.04.64l1.82,1.61c.12.11.27.16.43.16s.31-.05.43-.16l1.82-1.61c.19-.16.2-.45.04-.64-.16-.19-.45-.2-.63-.04Z"/></g></svg>