<?xml version="1.0" encoding="UTF-8"?><svg id="b" xmlns="http://www.w3.org/2000/svg" viewBox="0 0 287.64 319.46"><defs><style>.d{fill:#020202;stroke-width:0px;}</style></defs><g id="c"><path class="d" d="M283.93,6.37C280.13,1.58,274.98,0,269.06,0,237.5.04,50.14.04,18.58,0,12.66,0,7.51,1.58,3.71,6.37c-5.13,6.47-4.94,14.14.58,21.68,30.72,41.95,61.45,83.9,92.24,125.81.7.96,1.41,1.93,2.12,2.89,3.08,4.19,4.65,8.63,4.6,13.85-.12,13.85-.04,27.69-.04,41.54,0,29.3.03,58.61-.02,87.92-.01,8.96,3.77,15.26,12.24,18.56.4.16.71.55,1.06.84h7.49c3.41-1.9,7.07-3.45,10.18-5.75,12.93-9.55,25.61-19.43,38.54-28.97,8.28-6.11,12.12-14,12.05-24.31-.19-29.93-.04-59.87-.09-89.8-.01-4.77,1.17-9.05,4.03-12.92,9.25-12.56,18.48-25.14,27.65-37.76h-.35c22.47-30.62,44.92-61.26,67.36-91.9,5.52-7.54,5.71-15.21.58-21.68ZM257.11,25.87c-28.5,38.9-56.93,77.85-85.58,116.65-2.69,3.65-4.81,7.41-6.35,11.34h.13c-2.11,5.27-3.11,10.88-3.11,16.87.05,29.56-.06,59.13.08,88.69.02,3.77-1.22,6.12-4.23,8.31-9.77,7.11-19.34,14.5-29,21.77-.95.71-1.95,1.35-3.38,2.34v-4.16c0-38.55-.13-77.1.08-115.64.04-6.53-1.04-12.53-3.29-18.18-1.54-3.93-3.66-7.69-6.35-11.34C87.46,103.72,59.03,64.77,30.53,25.87c-.65-.89-1.24-1.82-2.11-3.11h230.8c-.87,1.29-1.46,2.22-2.11,3.11Z"/></g></svg>