<?xml version="1.0" encoding="UTF-8"?><svg id="b" xmlns="http://www.w3.org/2000/svg" viewBox="0 0 336.34 383.32"><defs><style>.d{fill:#020202;stroke-width:0px;}</style></defs><g id="c"><path class="d" d="M116.49,383.32c-.35-.28-.66-.68-1.06-.84-8.47-3.3-12.26-9.6-12.24-18.56.05-29.31.02-58.62.02-87.93,0-13.84-.08-27.69.04-41.53.05-5.22-1.52-9.66-4.6-13.85-31.5-42.87-62.93-85.79-94.36-128.7-5.52-7.53-5.71-15.2-.57-21.68,3.8-4.79,8.95-6.38,14.87-6.37,31.55.04,63.11.02,94.66.02,15.83,0,31.67,0,47.72,0,.37-.91.79-1.78,1.09-2.68C175.11,22.62,212.33-2.49,252.48.2c41.1,2.75,74.89,32.79,82.4,73.27,9.09,48.94-25.39,97.07-74.52,104.1-11.75,1.68-23.37,1.3-34.85-1.66-2.15-.55-3.31-.16-4.6,1.62-10.68,14.72-21.44,29.39-32.22,44.04-2.85,3.87-4.03,8.15-4.02,12.92.04,29.93-.1,59.87.09,89.8.07,10.32-3.77,18.2-12.05,24.31-12.93,9.54-25.61,19.43-38.54,28.98-3.11,2.3-6.77,3.85-10.18,5.74h-7.49ZM125.67,355.7c1.43-.99,2.43-1.62,3.38-2.34,9.66-7.27,19.23-14.67,29-21.77,3.01-2.19,4.24-4.54,4.23-8.31-.14-29.56-.03-59.13-.07-88.69-.02-9.93,2.73-18.81,8.73-26.82,9.56-12.76,18.89-25.7,28.31-38.58.71-.97,1.34-1.99,2.08-3.1-14.08-8.57-25.04-19.77-32.83-33.94-7.77-14.13-11.39-29.34-10.94-45.53H28.42c.87,1.29,1.46,2.23,2.11,3.11,28.5,38.9,56.93,77.85,85.58,116.65,6.56,8.89,9.7,18.45,9.64,29.52-.21,38.55-.08,77.09-.08,115.64v4.16ZM313.85,89.36c.06-36.69-30.05-66.8-66.84-66.84-36.93-.04-66.91,29.75-67.01,66.57-.1,36.91,29.58,66.78,66.55,66.99,36.96.22,67.23-29.8,67.29-66.72ZM217.54,102.86c-3.23,3.35-3.96,7.42-2.3,11.76,1.68,4.39,5.06,6.7,9.68,7.06,3.7.29,6.75-1.21,9.33-3.87,4.12-4.25,8.32-8.43,12.65-12.81,4.39,4.46,8.29,8.5,12.26,12.45,5.38,5.35,12.22,5.73,16.92,1.02,4.69-4.7,4.29-11.59-1.05-16.92-4.03-4.02-8.13-7.97-12.5-12.25,4.45-4.35,8.59-8.31,12.62-12.36,5.19-5.21,5.57-11.95,1.04-16.63-4.65-4.8-11.55-4.52-16.86.75-4.11,4.07-8.16,8.2-12.55,12.62-4.31-4.43-8.26-8.58-12.32-12.62-5.31-5.28-12.27-5.54-16.88-.77-4.5,4.66-4.11,11.5,1.01,16.63,4.04,4.05,8.14,8.05,12.59,12.43-4.78,4.71-9.29,9.01-13.62,13.49Z"/></g></svg>