<?xml version="1.0" encoding="UTF-8"?><svg id="b" xmlns="http://www.w3.org/2000/svg" viewBox="0 0 12 12"><defs><style>.d{fill:#000;stroke-width:0px;}</style></defs><g id="c"><path class="d" d="M4.05,4.93L1.19,2.06v1.54c.01.33-.26.6-.59.6s-.6-.27-.6-.6V.6c0-.18.07-.32.19-.42.11-.11.26-.18.43-.18h2.98c.33,0,.6.27.6.6s-.27.6-.6.6h-1.58l2.88,2.88-.85.85h0ZM.6,7.8c.33,0,.6.27.6.6v1.54s2.85-2.87,2.85-2.87l.85.85-2.88,2.88h1.58c.33,0,.6.27.6.6s-.27.6-.6.6H.62c-.17,0-.32-.07-.43-.18-.12-.1-.19-.24-.19-.42v-3c0-.33.27-.6.6-.6h0ZM11.4,4.2c-.33,0-.6-.27-.6-.6v-1.54s-2.85,2.87-2.85,2.87l-.85-.85,2.88-2.88h-1.58c-.33,0-.6-.27-.6-.6S8.07,0,8.4,0h2.98c.17,0,.32.07.43.18.12.1.19.24.19.42v3c0,.33-.27.6-.6.6h0ZM11.81,11.82c-.11.11-.26.18-.43.18h-2.98c-.33,0-.6-.27-.6-.6s.27-.6.6-.6h1.58l-2.88-2.88.85-.85,2.87,2.87v-1.54c-.01-.33.26-.6.59-.6s.6.27.6.6v3c0,.18-.07.32-.19.42h0Z"/></g></svg>