<?xml version="1.0" encoding="UTF-8"?><svg id="b" xmlns="http://www.w3.org/2000/svg" viewBox="0 0 23.9 14.9"><defs><style>.d{fill:#000;stroke-width:0px;}</style></defs><g id="c"><path class="d" d="M5.89,6.9H1.45c-.8,0-1.45-.65-1.45-1.45V1.45C0,.65.65,0,1.45,0h4.44c.8,0,1.45.65,1.45,1.45v4c0,.8-.65,1.45-1.45,1.45ZM1.45.9c-.3,0-.55.25-.55.55v4c0,.3.25.55.55.55h4.44c.3,0,.55-.25.55-.55V1.45c0-.3-.25-.55-.55-.55H1.45ZM14.17,6.9h-4.44c-.8,0-1.45-.65-1.45-1.45V1.45c0-.8.65-1.45,1.45-1.45h4.44c.8,0,1.45.65,1.45,1.45v4c0,.8-.65,1.45-1.45,1.45ZM9.73.9c-.3,0-.55.25-.55.55v4c0,.3.25.55.55.55h4.44c.3,0,.55-.25.55-.55V1.45c0-.3-.25-.55-.55-.55h-4.44ZM22.45,6.9h-4.44c-.8,0-1.45-.65-1.45-1.45V1.45c0-.8.65-1.45,1.45-1.45h4.44c.8,0,1.45.65,1.45,1.45v4c0,.8-.65,1.45-1.45,1.45ZM18.01.9c-.3,0-.55.25-.55.55v4c0,.3.25.55.55.55h4.44c.3,0,.55-.25.55-.55V1.45c0-.3-.25-.55-.55-.55h-4.44ZM5.89,14.9H1.45c-.8,0-1.45-.65-1.45-1.45v-4c0-.8.65-1.45,1.45-1.45h4.44c.8,0,1.45.65,1.45,1.45v4c0,.8-.65,1.45-1.45,1.45ZM1.45,8.9c-.3,0-.55.25-.55.55v4c0,.3.25.55.55.55h4.44c.3,0,.55-.25.55-.55v-4c0-.3-.25-.55-.55-.55H1.45ZM14.17,14.9h-4.44c-.8,0-1.45-.65-1.45-1.45v-4c0-.8.65-1.45,1.45-1.45h4.44c.8,0,1.45.65,1.45,1.45v4c0,.8-.65,1.45-1.45,1.45ZM9.73,8.9c-.3,0-.55.25-.55.55v4c0,.3.25.55.55.55h4.44c.3,0,.55-.25.55-.55v-4c0-.3-.25-.55-.55-.55h-4.44ZM22.45,14.9h-4.44c-.8,0-1.45-.65-1.45-1.45v-4c0-.8.65-1.45,1.45-1.45h4.44c.8,0,1.45.65,1.45,1.45v4c0,.8-.65,1.45-1.45,1.45ZM18.01,8.9c-.3,0-.55.25-.55.55v4c0,.3.25.55.55.55h4.44c.3,0,.55-.25.55-.55v-4c0-.3-.25-.55-.55-.55h-4.44Z"/></g></svg>