<?xml version="1.0" encoding="UTF-8"?><svg id="b" xmlns="http://www.w3.org/2000/svg" viewBox="0 0 25 23.78"><defs><style>.d{fill:#000;stroke-width:0px;}</style></defs><g id="c"><path class="d" d="M22.92,8.18h-.9c-.25,0-.25-.16-.26-.24-.47-4.46-4.25-7.94-8.83-7.94h-.85C7.53,0,3.77,3.43,3.25,7.84c-.01.11-.02.34-.23.34h-.95c-.62,0-2.08.66-2.08,3.96v1.74c0,2.45,1.45,3.02,2.08,3.02h3.02c.62,0,1.13-.51,1.13-1.13v-6.46c0-.62-.51-1.13-1.13-1.13,0,0-.14-.01-.11-.27.5-3.48,3.47-6.18,7.09-6.18h.85c3.59,0,6.57,2.66,7.08,6.11.02.11.08.34-.1.34-.62,0-1.13.51-1.13,1.13v6.46c0,.62.51,1.13,1.13,1.13h.57c.16,0,.13.12.12.19-.46,2.08-1.5,4.45-3.83,4.45h-1.72c-.18,0-.22-.13-.25-.19-.28-.51-.82-.86-1.44-.86h-1.59c-.91,0-1.64.74-1.64,1.64s.74,1.64,1.64,1.64h1.59c.63,0,1.18-.36,1.45-.88.02-.05.04-.14.23-.14h1.73c1.58,0,3.7-.79,4.8-4.53.12-.4.21-.8.29-1.18.01-.05.02-.16.18-.16h.89c.62,0,2.08-.57,2.08-3.02v-1.74c0-3.26-1.45-3.96-2.08-3.96Z"/></g></svg>