<?xml version="1.0" encoding="UTF-8"?><svg id="b" xmlns="http://www.w3.org/2000/svg" viewBox="0 0 25 25"><defs><style>.d{fill:#000;stroke-width:0px;}</style></defs><g id="c"><path class="d" d="M5.86,9.91h-1.93c.33-4.44,4.05-7.96,8.57-7.96,3.58,0,6.82,2.26,8.06,5.61.19.51.75.76,1.25.58.51-.19.76-.75.58-1.25-.74-2-2.06-3.71-3.8-4.95-1.79-1.27-3.89-1.94-6.09-1.94-2.82,0-5.47,1.1-7.46,3.09-1.97,1.97-3.06,4.57-3.09,7.35-1.17.68-1.95,1.94-1.95,3.38v3.32c0,2.15,1.75,3.91,3.91,3.91h1.95c.54,0,.98-.44.98-.98v-9.18c0-.54-.44-.98-.98-.98ZM4.88,19.09h-.98c-1.08,0-1.95-.88-1.95-1.95v-3.32c0-1.08.88-1.95,1.95-1.95h.98v7.23ZM21.09,9.91h-1.95c-.54,0-.98.44-.98.98v10.21c0,.54-.44.98-.98.98h-2.98v.03c-.33-.6-.97-1.01-1.71-1.01-1.08,0-1.95.87-1.95,1.95s.87,1.95,1.95,1.95c.74,0,1.38-.41,1.71-1.01v.03h2.98c1.62,0,2.93-1.31,2.93-2.93v-.05h.98c2.15,0,3.91-1.75,3.91-3.91v-3.32c0-2.15-1.75-3.91-3.91-3.91ZM23.05,17.14c0,1.08-.88,1.95-1.95,1.95h-.98v-7.23h.98c1.08,0,1.95.88,1.95,1.95v3.32Z"/></g></svg>