<?xml version="1.0" encoding="UTF-8"?><svg id="b" xmlns="http://www.w3.org/2000/svg" viewBox="0 0 53 46.59"><defs><style>.d{fill:#000;stroke-width:0px;}</style></defs><g id="c"><path class="d" d="M48.34,12.43h-3.25C42.32,5.87,36.23,1.09,29.22.18c-6.95-.93-13.78,1.75-18.24,7.13-1.31,1.58-2.35,3.3-3.12,5.12h-3.2c-2.57,0-4.66,2.09-4.66,4.66v6.21c0,2.57,2.09,4.66,4.66,4.66h6.38l-.67-2.04c-1.94-5.93-.85-11.99,3-16.63,3.78-4.56,9.55-6.81,15.45-6.04,6.24.81,11.65,5.22,13.79,11.24v.03c.36.92.6,1.86.74,2.84.47,2.9.2,5.85-.77,8.51v.02c-2.4,6.81-8.85,11.38-16.06,11.38-2.59,0-4.69,2.09-4.69,4.66s2.09,4.66,4.66,4.66,4.66-2.09,4.66-4.66v-2.09c6.2-1.47,11.41-5.87,13.91-11.88h3.27c2.57,0,4.66-2.09,4.66-4.66v-6.21c0-2.57-2.09-4.66-4.66-4.66ZM12.53,31.07v3.11h13.97c7.71,0,13.97-6.27,13.97-13.97s-6.27-13.97-13.97-13.97-13.97,6.27-13.97,13.97c0,3.14,1.06,6.18,2.98,8.63-.37,1.31-1.57,2.24-2.98,2.24ZM31.16,18.65h3.11v3.11h-3.11v-3.11ZM24.95,18.65h3.11v3.11h-3.11v-3.11ZM18.74,18.65h3.11v3.11h-3.11v-3.11Z"/></g></svg>