<?xml version="1.0" encoding="UTF-8"?><svg id="b" xmlns="http://www.w3.org/2000/svg" viewBox="0 0 16.03 15.93"><defs><style>.d{fill:#000;stroke-width:0px;}</style></defs><g id="c"><path class="d" d="M16.03,5.29v8.87c0,.47-.19.93-.52,1.26-.33.33-.79.52-1.26.52h-2.97c-.31,0-.62-.13-.84-.35-.22-.22-.35-.52-.35-.84v-3.27c0-.16-.06-.31-.17-.42s-.26-.17-.42-.17h-2.97c-.16,0-.31.06-.42.17-.11.11-.17.26-.17.42v3.27c0,.32-.13.62-.35.84s-.52.35-.84.35H1.78c-.47,0-.93-.19-1.26-.52-.33-.33-.52-.79-.52-1.26V5.29c0-.21.05-.41.15-.59.1-.18.25-.33.42-.43L7.4.17c.18-.11.4-.17.61-.17s.43.06.61.17l6.83,4.1c.18.11.32.26.42.43.1.18.15.38.15.58Z"/></g></svg>