<?xml version="1.0" encoding="UTF-8"?><svg id="b" xmlns="http://www.w3.org/2000/svg" viewBox="0 0 23 23"><defs><style>.d{fill:#000;stroke-width:0px;}</style></defs><g id="c"><path class="d" d="M19.99,5.93c1.64,0,2.96-1.33,2.96-2.97s-1.33-2.97-2.96-2.97-2.96,1.33-2.96,2.97,1.33,2.97,2.96,2.97ZM16.14,16.64h1.9v1.91h-1.9v-1.91ZM12.68,6.26c.37-.33.85-.51,1.34-.51s.97.18,1.34.51l.53.47v-1.69C15.89,2.27,13.63,0,10.86,0,8.44,0,6.41,1.74,5.94,4.04c.76,1.16,2.1,3.43,2.67,5.83l4.07-3.61ZM22.33,21.64h-.93v-6.41l.44.39c.13.11.29.17.45.17.19,0,.37-.08.5-.23.25-.28.22-.7-.06-.95l-1.97-1.75v-3.49c0-.37-.3-.67-.67-.67s-.67.3-.67.67v2.3l-4.95-4.4c-.25-.23-.64-.23-.89,0l-8.27,7.35c-.28.25-.3.67-.06.95.25.28.67.3.95.06l.44-.39v6.41h-2.17v-2.94c.29-.09.56-.23.83-.43v-1.19c-.4-.09-.77-.31-1.05-.63-.74-.83-.66-2.11.17-2.85l3.04-2.7c-.51-3.27-3-6.67-3.11-6.83-.13-.17-.33-.27-.54-.27s-.41.1-.54.27C3.12,4.25.04,8.46.04,12.02c0,1.74.35,3.38.97,4.62.55,1.1,1.28,1.81,2.1,2.06v2.94H.67c-.37,0-.67.3-.67.67s.3.67.67.68h21.65c.37,0,.67-.31.67-.68s-.3-.67-.67-.67ZM14.8,15.96c0-.37.3-.67.67-.67h3.25c.37,0,.67.3.67.67v3.26c0,.37-.3.67-.67.67h-3.25c-.37,0-.67-.3-.67-.67v-3.26ZM11.12,21.64v-5.01h-1.35v5.01h-1.35v-5.68c0-.37.3-.67.67-.67h2.69c.37,0,.67.3.67.67v5.68h-1.35Z"/></g></svg>