<?xml version="1.0" encoding="UTF-8"?><svg id="b" xmlns="http://www.w3.org/2000/svg" viewBox="0 0 15 15"><defs><style>.d{fill:#000;stroke-width:0px;}</style></defs><g id="c"><path class="d" d="M12.8,0H2.2C.99,0,0,.99,0,2.2v10.61c0,1.21.99,2.2,2.2,2.2h10.61c1.21,0,2.2-.99,2.2-2.2V2.2c0-1.21-.99-2.2-2.2-2.2ZM7.53,11.43c-2.18,0-3.96-1.77-3.96-3.96s1.77-3.96,3.96-3.96,3.96,1.77,3.96,3.96-1.77,3.96-3.96,3.96ZM11.92,4.39c-.73,0-1.32-.59-1.32-1.32s.59-1.32,1.32-1.32,1.32.59,1.32,1.32-.59,1.32-1.32,1.32ZM11.92,3.52c.24,0,.44-.2.44-.44s-.2-.44-.44-.44-.44.2-.44.44.2.44.44.44ZM7.53,10.55c1.7,0,3.08-1.38,3.08-3.08s-1.38-3.08-3.08-3.08-3.08,1.38-3.08,3.08,1.38,3.08,3.08,3.08Z"/></g></svg>