<?xml version="1.0" encoding="UTF-8"?><svg id="b" xmlns="http://www.w3.org/2000/svg" viewBox="0 0 19.64 20"><defs><style>.d{fill:#000;stroke-width:0px;}</style></defs><g id="c"><path class="d" d="M17,18.82l-7.87-4.16c-.21-.11-.46-.09-.65.04l-6.01,4.16c-.23.16-.32.44-.24.7.08.26.32.44.6.44h13.88c.29,0,.54-.19.61-.48.07-.28-.06-.57-.31-.7ZM19.63,17.64l-1.85-8.33c-.04-.2-.19-.37-.38-.45-.19-.08-.41-.05-.58.07l-6.02,4.16c-.18.12-.28.33-.27.55.01.22.14.41.33.51l7.87,4.16c.09.05.19.07.29.07.13,0,.27-.04.38-.13.19-.15.29-.39.23-.63ZM15.27,7.94c-.08-.26-.32-.44-.6-.44h-5.71c-1.04,1.88-2.57,3.67-3.2,4.38-.35.39-.86.62-1.4.62s-1.04-.23-1.39-.62c-.24-.27-.62-.7-1.05-1.24l-1.51,6.81c-.05.25.05.51.26.65.1.07.23.11.35.11s.25-.04.36-.11l13.65-9.45c.23-.15.32-.44.24-.7ZM4.38,0C1.96,0,0,1.96,0,4.38c0,2.24,3.51,6.22,3.91,6.67.12.13.29.21.46.21s.35-.08.46-.21c.4-.45,3.91-4.42,3.91-6.67C8.75,1.96,6.79,0,4.38,0ZM4.38,6.25c-1.04,0-1.88-.84-1.88-1.88s.84-1.88,1.88-1.88,1.88.84,1.88,1.88-.84,1.88-1.88,1.88Z"/></g></svg>