<?xml version="1.0" encoding="UTF-8"?><svg id="b" xmlns="http://www.w3.org/2000/svg" viewBox="0 0 15 13.25"><defs><style>.d{fill:#000;stroke-width:0px;}</style></defs><g id="c"><path class="d" d="M13.91,1.3c-.74-.84-1.77-1.3-2.89-1.3-1.58,0-2.58.94-3.14,1.74-.15.21-.27.41-.37.61-.1-.19-.23-.4-.37-.61-.56-.79-1.56-1.74-3.14-1.74C2.86,0,1.83.46,1.09,1.3c-.71.8-1.09,1.87-1.09,3.02,0,1.25.49,2.41,1.53,3.65.94,1.11,2.28,2.26,3.84,3.59.58.49,1.18,1.01,1.82,1.57l.02.02c.08.07.19.11.29.11s.21-.04.29-.11l.02-.02c.64-.56,1.24-1.07,1.82-1.57,1.56-1.33,2.9-2.47,3.84-3.59,1.05-1.24,1.53-2.41,1.53-3.65,0-1.15-.39-2.22-1.09-3.02ZM9.06,10.89c-.5.43-1.02.87-1.56,1.34-.54-.47-1.06-.91-1.56-1.34C2.89,8.29.88,6.58.88,4.32c0-.93.31-1.8.87-2.44.57-.65,1.36-1,2.23-1,1.2,0,1.98.74,2.43,1.37.4.56.6,1.12.67,1.34.06.18.23.3.42.3s.36-.12.42-.3c.07-.22.28-.78.67-1.34.44-.62,1.22-1.37,2.43-1.37.87,0,1.66.36,2.23,1,.56.64.87,1.51.87,2.44,0,2.26-2.01,3.97-5.06,6.57Z"/></g></svg>