<?xml version="1.0" encoding="UTF-8"?><svg id="b" xmlns="http://www.w3.org/2000/svg" viewBox="0 0 15 13.25"><defs><style>.d{fill:#000;stroke-width:0px;}</style></defs><g id="c"><path class="d" d="M13.91,1.3c-.74-.84-1.77-1.3-2.89-1.3-1.58,0-2.58.94-3.15,1.73-.14.21-.27.41-.37.61-.1-.2-.23-.4-.37-.61-.56-.79-1.56-1.73-3.14-1.73C2.86,0,1.84.46,1.1,1.3c-.71.8-1.1,1.87-1.1,3.02,0,1.25.49,2.41,1.53,3.65.94,1.11,2.28,2.26,3.84,3.59.58.49,1.18,1,1.82,1.56l.02.02c.08.07.19.11.29.11s.21-.04.29-.11l.02-.02c.64-.56,1.24-1.07,1.82-1.56,1.56-1.33,2.9-2.48,3.84-3.59,1.04-1.24,1.53-2.4,1.53-3.65,0-1.15-.39-2.22-1.09-3.02Z"/></g></svg>