<?xml version="1.0" encoding="UTF-8"?><svg id="b" xmlns="http://www.w3.org/2000/svg" viewBox="0 0 15 15"><defs><style>.d{fill:#000;stroke-width:0px;}</style></defs><g id="c"><path class="d" d="M12.8,0H2.2C.99,0,0,.99,0,2.2v10.61c0,1.21.99,2.2,2.2,2.2h10.6c1.21,0,2.2-.99,2.2-2.2V2.2c0-1.21-.99-2.2-2.2-2.2ZM5.3,11.89h-1.76v-6.15h1.76v6.15ZM5.3,4.86h-1.76v-1.76h1.76v1.76ZM11.46,11.89h-1.76v-3.52c0-.48-.39-.88-.88-.88s-.88.39-.88.88v3.52h-1.76v-6.15h1.76v.33c.46-.14.76-.33,1.32-.33,1.19,0,2.2,1.07,2.2,2.33v3.82Z"/></g></svg>