<?xml version="1.0" encoding="UTF-8"?><svg id="b" xmlns="http://www.w3.org/2000/svg" viewBox="0 0 25.6 25.6"><defs><style>.d{fill:#000;stroke-width:0px;}</style></defs><g id="c"><path class="d" d="M12.8,0C5.73,0,0,5.73,0,12.8s5.73,12.8,12.8,12.8,12.8-5.73,12.8-12.8S19.87,0,12.8,0ZM9.08,19.35h-3.11v-9.38h3.11v9.38ZM7.52,8.68h-.03c-.98,0-1.78-.8-1.77-1.79,0-.98.8-1.78,1.79-1.77.98,0,1.78.8,1.77,1.79-.01.98-.8,1.77-1.77,1.77ZM20.32,19.35h-3.11v-5.02c0-1.26-.46-2.12-1.58-2.12-.72,0-1.36.46-1.6,1.14-.08.24-.11.51-.1.76v5.24h-3.11s.04-8.5,0-9.38h3.11v1.32c.57-1,1.65-1.59,2.81-1.55,2.05,0,3.58,1.33,3.58,4.22v5.39Z"/></g></svg>