<?xml version="1.0" encoding="UTF-8"?><svg id="b" xmlns="http://www.w3.org/2000/svg" viewBox="0 0 20.31 20.31"><defs><style>.d{fill:#000;stroke-width:0px;}</style></defs><g id="c"><path class="d" d="M7.26,14.08l.48.48c.07.07.16.13.25.17.1.04.2.06.3.06.1,0,.21-.02.3-.06.1-.04.18-.1.26-.17.07-.07.13-.16.17-.26.04-.1.06-.2.06-.3,0-.1-.02-.21-.06-.3-.04-.1-.1-.18-.17-.25l-.48-.48c-1.03-1.03-2.02-2.02-2.08-2.08-.76-.76-1.29-1.74-1.5-2.8-.21-1.06-.1-2.16.31-3.16.41-1,1.11-1.85,2.01-2.45.9-.6,1.96-.92,3.04-.92s2.14.32,3.04.92c.9.6,1.6,1.45,2.01,2.45.41,1,.52,2.1.31,3.16-.21,1.06-.73,2.04-1.5,2.8l-4.42,4.42c-.07.07-.13.16-.17.25-.04.1-.06.2-.06.3,0,.1.02.21.06.3.04.1.1.18.17.26.07.07.16.13.26.17.1.04.2.06.3.06.1,0,.21-.02.3-.06.1-.04.18-.1.25-.17l4.42-4.42c.98-.98,1.65-2.24,1.92-3.6.27-1.36.13-2.78-.4-4.06-.53-1.28-1.43-2.38-2.59-3.16C12.9.41,11.54,0,10.15,0c-1.39,0-2.75.41-3.91,1.19-1.16.77-2.06,1.87-2.59,3.16s-.67,2.7-.4,4.06c.27,1.36.94,2.62,1.93,3.6.06.06,1.05,1.05,2.07,2.07ZM20.29,19.34l-1.56-6.25c-.04-.17-.14-.32-.28-.43s-.31-.17-.48-.17h-1.56c-.21,0-.41.08-.55.23-.15.15-.23.35-.23.55s.08.41.23.55c.15.15.35.23.55.23h.95l1.17,4.69H1.78l1.17-4.69h.95c.21,0,.41-.08.55-.23.15-.15.23-.35.23-.55s-.08-.41-.23-.55c-.15-.15-.35-.23-.55-.23h-1.56c-.17,0-.34.06-.48.17s-.23.26-.28.43L.02,19.34c-.03.12-.03.24,0,.35.02.12.08.23.15.32.07.09.17.17.27.22.11.05.22.08.34.08h18.75c.12,0,.24-.03.34-.08.11-.05.2-.13.27-.22.07-.09.12-.2.15-.32.02-.12.02-.24,0-.35Z"/></g></svg>