<?xml version="1.0" encoding="UTF-8"?><svg id="b" xmlns="http://www.w3.org/2000/svg" viewBox="0 0 19 19"><defs><style>.d{fill:#000;stroke-width:0px;}</style></defs><g id="c"><path class="d" d="M17.38,13.32c-.27-.15-.61-.05-.76.22-.15.27-.05.61.22.76.66.36,1.04.77,1.04,1.11,0,.42-.59,1.06-2.24,1.62-1.63.56-3.82.86-6.14.86s-4.51-.31-6.14-.86c-1.65-.56-2.24-1.21-2.24-1.62,0-.34.38-.74,1.04-1.11.27-.15.37-.49.22-.76-.15-.27-.49-.37-.76-.22-.74.41-1.62,1.1-1.62,2.08,0,.76.52,1.83,3,2.68,1.75.59,4.05.92,6.5.92s4.76-.33,6.5-.92c2.48-.84,3-1.92,3-2.68,0-.99-.88-1.68-1.62-2.08ZM5.3,16.22c1.13.32,2.62.5,4.2.5s3.07-.18,4.2-.5c1.38-.39,2.08-.96,2.08-1.68s-.7-1.29-2.08-1.68c-.31-.09-.64-.16-1-.23-.19.33-.39.67-.61,1.03.39.06.76.13,1.1.22,1.02.26,1.39.55,1.47.66-.08.11-.45.4-1.47.66-.96.24-2.2.38-3.51.4-.06,0-.13,0-.19,0s-.13,0-.19,0c-1.3-.01-2.54-.15-3.51-.4-1.02-.26-1.39-.55-1.47-.66.08-.11.45-.4,1.47-.66.33-.09.7-.16,1.1-.22-.21-.35-.41-.69-.61-1.03-.35.06-.69.14-1,.23-1.38.39-2.08.96-2.08,1.68s.7,1.29,2.08,1.68ZM9.5,14.5c.5,0,.95-.25,1.2-.68,1.81-2.96,3.97-6.87,3.97-8.65,0-2.85-2.32-5.17-5.17-5.17s-5.17,2.32-5.17,5.17c0,1.78,2.16,5.68,3.97,8.65.26.42.71.68,1.2.68ZM7.42,4.82c0-1.15.93-2.08,2.08-2.08s2.08.93,2.08,2.08-.93,2.08-2.08,2.08-2.08-.93-2.08-2.08Z"/></g></svg>