<?xml version="1.0" encoding="UTF-8"?><svg id="b" xmlns="http://www.w3.org/2000/svg" viewBox="0 0 12 12"><defs><style>.d{fill:#000;stroke-width:0px;}</style></defs><g id="c"><path class="d" d="M11.57,0c-.07,0-.13.02-.19.05l-3.25,1.62L4.46.04s-.01,0-.02,0c-.02,0-.03-.01-.05-.02-.02,0-.03,0-.05-.01-.03,0-.07,0-.1,0-.02,0-.03,0-.05.01-.02,0-.03,0-.05.02,0,0-.01,0-.02,0L.25,1.75C.1,1.82,0,1.97,0,2.14v9.43c0,.14.07.28.19.36.12.08.27.09.41.03l3.68-1.64,3.68,1.64s.01,0,.02,0c.1.05.22.04.32,0,0,0,.01,0,.02,0l3.43-1.71c.15-.07.24-.22.24-.38V.43C12,.19,11.81,0,11.57,0ZM3.86,9.58l-3,1.33V2.42l3-1.33v8.49ZM7.71,10.91l-3-1.33V1.09l3,1.33v8.49ZM11.14,9.59l-2.57,1.29V2.41l2.57-1.29v8.47Z"/></g></svg>