<?xml version="1.0" encoding="UTF-8"?><svg id="b" xmlns="http://www.w3.org/2000/svg" viewBox="0 0 13.13 10.33"><defs><style>.d{fill:#000;stroke-width:0px;}</style></defs><g id="c"><path class="d" d="M8.44,9.49l-3.75.75V.87L8.44.12v9.38ZM3.75.82L.58.01c-.07-.02-.14-.02-.21,0-.07.01-.14.05-.19.09-.06.05-.1.1-.13.17C.01.34,0,.41,0,.48v8.44c0,.11.03.21.1.3.06.09.16.15.26.17l3.39.83V.82ZM12.77.95L9.38.12v9.4l3.17.81s.08,0,.11,0c.12,0,.24-.05.33-.14.09-.09.14-.21.14-.33V1.42c0-.11-.03-.21-.1-.3-.06-.09-.16-.15-.26-.17Z"/></g></svg>