<?xml version="1.0" encoding="UTF-8"?><svg id="b" xmlns="http://www.w3.org/2000/svg" viewBox="0 0 18.24 31"><defs><style>.d{fill:#000;stroke-width:0px;}</style></defs><g id="c"><path class="d" d="M9.12,0C4.09,0,0,4.09,0,9.12v12.76c0,5.03,4.09,9.12,9.12,9.12s9.12-4.09,9.12-9.12v-12.76C18.24,4.09,14.15,0,9.12,0ZM16.38,21.88c0,4-3.26,7.26-7.26,7.26s-7.26-3.26-7.26-7.26v-12.76C1.86,5.12,5.12,1.86,9.12,1.86s7.26,3.26,7.26,7.26v12.76ZM9.12,6.17c-.51,0-.93.42-.93.93v4.28c0,.51.42.93.93.93s.93-.42.93-.93v-4.28c0-.51-.42-.93-.93-.93Z"/></g></svg>