<?xml version="1.0" encoding="UTF-8"?><svg id="b" xmlns="http://www.w3.org/2000/svg" viewBox="0 0 23 23"><defs><style>.d{fill:#000;stroke-width:0px;}</style></defs><g id="c"><path class="d" d="M9.55,18.73c-.29-.29-.76-.29-1.05,0l-1.94,1.94c-.29.29-.29.76,0,1.05.29.29.76.29,1.05,0l1.94-1.94c.29-.29.29-.76,0-1.05ZM4.27,13.45c-.29-.29-.76-.29-1.05,0l-1.94,1.94c-.29.29-.29.76,0,1.05.29.29.76.29,1.05,0l1.94-1.94c.29-.29.29-.76,0-1.05ZM7.79,15.21c-.29-.29-.76-.29-1.05,0l-4.93,4.93c-.29.29-.29.76,0,1.05.29.29.76.29,1.05,0l4.93-4.93c.29-.29.29-.76,0-1.05ZM22.96.97l-7.03,21.52c-.2.61-1.02.7-1.35.14l-4.73-8.13c-.15-.26-.13-.58.05-.82l1.7-2.29-2.29,1.7c-.24.18-.56.19-.82.05L.37,8.41c-.55-.32-.47-1.15.14-1.35L22.03.04c.58-.19,1.12.36.94.94Z"/></g></svg>