<?xml version="1.0" encoding="UTF-8"?><svg id="b" xmlns="http://www.w3.org/2000/svg" viewBox="0 0 11.26 13.5"><defs><style>.d{fill:#000;stroke-width:0px;}</style></defs><g id="c"><path class="d" d="M5.55,6.5c.89,0,1.67-.32,2.3-.95.63-.63.95-1.41.95-2.3s-.32-1.67-.95-2.3c-.63-.63-1.41-.95-2.3-.95s-1.67.32-2.3.95c-.63.63-.95,1.41-.95,2.3s.32,1.67.95,2.3c.63.63,1.41.95,2.3.95ZM11.24,10.38c-.02-.26-.06-.55-.11-.85-.05-.31-.13-.59-.21-.86-.09-.27-.21-.54-.35-.8-.15-.27-.33-.5-.53-.69-.21-.2-.47-.36-.76-.48-.3-.12-.62-.18-.97-.18-.14,0-.27.06-.53.22-.16.1-.34.22-.55.35-.18.11-.42.22-.71.31-.29.09-.58.14-.87.14s-.58-.05-.87-.14c-.3-.1-.54-.2-.71-.31-.2-.13-.39-.25-.55-.36-.26-.17-.39-.22-.53-.22-.35,0-.68.06-.97.18-.3.12-.55.28-.76.48-.2.19-.38.43-.53.69-.15.26-.27.53-.35.8-.08.26-.15.55-.21.86-.05.3-.09.59-.11.85-.02.26-.03.53-.03.8,0,.7.22,1.28.67,1.7.44.42,1.01.63,1.72.63h6.5c.7,0,1.28-.21,1.72-.63.44-.42.67-.99.67-1.7,0-.27,0-.54-.03-.8Z"/></g></svg>