<?xml version="1.0" encoding="UTF-8"?><svg id="b" xmlns="http://www.w3.org/2000/svg" viewBox="0 0 13.5 13.5"><defs><style>.d{fill:#000;stroke-width:0px;}</style></defs><g id="c"><path class="d" d="M13.47,10.46c-.04-.11-.28-.28-.73-.51-.12-.07-.29-.17-.52-.29-.22-.12-.43-.23-.61-.34-.18-.1-.35-.2-.51-.3-.03-.02-.11-.08-.24-.17-.13-.09-.25-.16-.34-.21-.09-.04-.18-.07-.27-.07-.13,0-.29.09-.48.27-.19.18-.37.38-.53.59-.16.21-.33.41-.51.59-.18.18-.33.27-.44.27-.06,0-.13-.02-.22-.05-.09-.03-.15-.06-.2-.08-.04-.02-.12-.07-.23-.13-.11-.07-.17-.1-.18-.11-.88-.49-1.63-1.04-2.25-1.67-.63-.63-1.18-1.38-1.67-2.25,0-.01-.04-.07-.11-.18-.07-.11-.11-.19-.13-.23-.02-.04-.05-.11-.08-.2-.03-.09-.05-.16-.05-.22,0-.12.09-.26.27-.44.18-.18.38-.35.59-.51.21-.16.41-.34.59-.53.18-.19.27-.35.27-.48,0-.09-.02-.18-.07-.27-.04-.09-.11-.21-.21-.34-.09-.13-.15-.21-.17-.24-.1-.16-.19-.33-.3-.51-.1-.18-.21-.39-.34-.61-.12-.22-.22-.4-.29-.52-.22-.45-.39-.69-.51-.73-.04-.02-.11-.03-.2-.03-.17,0-.4.03-.68.1-.28.06-.5.13-.66.2-.32.13-.66.52-1.02,1.17-.33.6-.49,1.2-.49,1.78,0,.17.01.34.03.5.02.16.06.35.12.55.06.2.1.36.14.46.04.1.1.28.2.53.1.26.15.41.17.47.22.63.49,1.19.8,1.68.5.82,1.19,1.66,2.07,2.54.87.87,1.72,1.56,2.54,2.07.49.31,1.05.57,1.68.8.06.02.21.08.47.17.26.1.43.16.53.2.1.04.25.08.46.14.2.06.39.1.55.12.16.02.33.03.5.03.59,0,1.18-.16,1.78-.49.65-.36,1.04-.7,1.17-1.02.07-.16.14-.38.2-.66.06-.28.1-.5.1-.68,0-.09,0-.16-.03-.2Z"/></g></svg>