<?xml version="1.0" encoding="UTF-8"?><svg id="b" xmlns="http://www.w3.org/2000/svg" viewBox="0 0 45.75 35.4"><defs><style>.d{fill:#000;stroke-width:0px;}</style></defs><g id="c"><path class="d" d="M18.75,26.1c0,2.55-1.05,4.95-2.85,6.75-1.8,1.65-4.05,2.55-6.6,2.55s-4.8-.9-6.6-2.55c-1.8-1.8-2.7-4.65-2.7-7.95,0-5.85,1.5-11.1,4.5-15.6C7.5,4.95,12,1.8,17.55,0l1.2.9c-5.7,4.5-8.7,9.9-9.15,15.75,2.4,0,4.5.9,6.3,2.7,1.8,1.8,2.85,4.05,2.85,6.75ZM45.75,26.1c0,2.55-1.05,4.95-2.7,6.75-1.8,1.65-4.2,2.55-6.6,2.55-2.55,0-4.8-.9-6.6-2.55-1.8-1.8-2.85-4.65-2.85-7.95,0-5.85,1.65-11.1,4.65-15.6,3-4.35,7.35-7.5,12.9-9.3l1.2.9c-5.55,4.5-8.55,9.9-9,15.75,2.25,0,4.5.9,6.3,2.7,1.65,1.8,2.7,4.05,2.7,6.75Z"/></g></svg>