<?xml version="1.0" encoding="UTF-8"?><svg id="b" xmlns="http://www.w3.org/2000/svg" viewBox="0 0 14.06 14.06"><defs><style>.d{fill:#000;stroke-width:0px;}</style></defs><g id="c"><path class="d" d="M13.81,12.64l-2.7-2.7c.82-1.07,1.27-2.37,1.27-3.75,0-1.65-.64-3.21-1.81-4.38-1.17-1.17-2.72-1.81-4.38-1.81S2.98.64,1.81,1.81C-.6,4.23-.6,8.16,1.81,10.57c1.17,1.17,2.72,1.81,4.38,1.81,1.37,0,2.67-.45,3.75-1.27l2.7,2.7c.16.16.38.24.59.24s.43-.08.59-.24c.33-.33.33-.85,0-1.18ZM2.99,9.39c-1.76-1.76-1.76-4.64,0-6.4.85-.85,1.99-1.33,3.2-1.33s2.35.47,3.2,1.33c.85.85,1.33,1.99,1.33,3.2s-.47,2.35-1.33,3.2c-.85.85-1.99,1.33-3.2,1.33s-2.35-.47-3.2-1.33Z"/></g></svg>