<?xml version="1.0" encoding="UTF-8"?><svg id="b" xmlns="http://www.w3.org/2000/svg" viewBox="0 0 13.33 13.33"><defs><style>.d{fill:#000;stroke-width:0px;}</style></defs><g id="c"><path class="d" d="M12.67,7.33c-.18,0-.35.07-.47.2-.13.13-.2.29-.2.47v2c0,.53-.21,1.04-.59,1.41-.38.38-.88.59-1.41.59H3.33c-.53,0-1.04-.21-1.41-.59-.38-.38-.59-.88-.59-1.41V3.33c0-.53.21-1.04.59-1.41s.88-.59,1.41-.59h3.33c.18,0,.35-.07.47-.2.13-.13.2-.29.2-.47s-.07-.35-.2-.47c-.13-.13-.29-.2-.47-.2h-3.33c-.88,0-1.73.35-2.36.98S0,2.45,0,3.33v6.67c0,.88.35,1.73.98,2.36.62.62,1.47.98,2.36.98h6.67c.88,0,1.73-.35,2.36-.98.62-.62.98-1.47.98-2.36v-2c0-.18-.07-.35-.2-.47-.12-.13-.29-.2-.47-.2ZM3.34,7.43c.02.14.08.27.18.37.1.1.23.17.37.19.04,0,.07,0,.11,0,.12,0,.25-.03.35-.1.11-.07.19-.16.25-.27.83-1.66,3.03-1.75,4.07-1.69v1.39c0,.13.04.26.11.37.07.11.18.2.3.25.12.05.26.06.39.04.13-.03.25-.09.34-.18l3.33-3.33c.07-.07.12-.15.15-.23.03-.09.05-.18.04-.27,0-.09-.03-.19-.07-.27-.04-.08-.1-.16-.18-.22l-3.33-2.67c-.1-.08-.22-.13-.34-.14-.12-.01-.25,0-.36.06-.11.05-.21.14-.28.25s-.1.23-.1.36v1.28c-1.87-.09-3.29.36-4.23,1.32-.42.47-.73,1.03-.92,1.63-.19.6-.25,1.24-.18,1.87Z"/></g></svg>