<?xml version="1.0" encoding="UTF-8"?><svg id="b" xmlns="http://www.w3.org/2000/svg" viewBox="0 0 14.61 14.93"><defs><style>.d{fill:#000;stroke-width:0px;}</style></defs><g id="c"><path class="d" d="M14.47,13.13l-.97-.97c-.19-.19-.5-.19-.69,0-.19.19-.19.5,0,.69l.14.14H3.61l.14-.14c.19-.19.19-.5,0-.69-.19-.19-.5-.19-.69,0l-.97.97c-.1.1-.14.23-.14.34s.05.25.14.34l.97.97c.19.19.5.19.69,0,.19-.19.19-.5,0-.69l-.14-.14h9.34l-.14.14c-.19.19-.19.5,0,.69.19.19.5.19.69,0l.97-.97c.1-.1.14-.23.14-.34s-.05-.25-.14-.34ZM2.09,10.21l-.14.14V1.66l.14.14c.19.19.5.19.69,0,.19-.19.19-.5,0-.69L1.81.14c-.19-.19-.5-.19-.69,0L.14,1.12c-.19.19-.19.5,0,.69.19.19.5.19.69,0l.14-.14v8.69l-.14-.14c-.19-.19-.5-.19-.69,0-.19.19-.19.5,0,.69l.97.97c.19.19.5.19.69,0l.97-.97c.19-.19.19-.5,0-.69-.19-.19-.5-.19-.69,0ZM12.17,3.9h2.43V.49C14.61.22,14.39,0,14.12,0h-6.66v3.9h2.43c.27,0,.49.22.49.49s-.22.49-.49.49h-2.43v1.46c0,.27-.22.49-.49.49s-.49-.22-.49-.49V0h-2.11C4.11,0,3.9.22,3.9.49v10.06c0,.27.22.49.49.49h2.11v-2.43c0-.27.22-.49.49-.49s.49.22.49.49v2.43h6.66c.27,0,.49-.22.49-.49v-5.68h-2.43c-.27,0-.49-.22-.49-.49s.22-.49.49-.49Z"/></g></svg>