<?xml version="1.0" encoding="UTF-8"?><svg id="b" xmlns="http://www.w3.org/2000/svg" viewBox="0 0 26.72 27"><defs><style>.d{fill:#000;stroke-width:0px;}</style></defs><g id="c"><path class="d" d="M26.08,3.51H4.15c-.35,0-.64.29-.64.64v22.21c0,.35.29.64.64.64h16.98c.35,0,.64-.29.64-.64v-5.67h4.31c.35,0,.64-.29.64-.64V4.15c0-.35-.29-.64-.64-.64ZM25.44,19.42h-4.31c-.35,0-.64.29-.64.64v5.67H4.79V4.79h20.65v14.62ZM1.98,4.68c.29,0,.53-.24.53-.53s-.24-.53-.53-.53H.53c-.29,0-.53.24-.53.53s.24.53.53.53h.2v21.16h-.2c-.29,0-.53.24-.53.53s.24.53.53.53h1.45c.29,0,.53-.24.53-.53s-.24-.53-.53-.53h-.21V4.68h.21ZM4.15,2.5c.29,0,.53-.24.53-.53v-.21h20.8v.21c0,.29.24.53.53.53s.53-.24.53-.53V.53c0-.29-.24-.53-.53-.53s-.53.24-.53.53v.2H4.68v-.2c0-.29-.24-.53-.53-.53s-.53.24-.53.53v1.45c0,.29.23.53.53.53ZM10.49,18.36v-4.02c.39-.5.8-.75,1.19-.75.24,0,.41.07.5.21.07.11.16.35.16.86v3.71h1.34v-4.02c.4-.5.8-.75,1.19-.75.24,0,.4.07.5.21.08.11.16.35.16.86v3.71h1.34v-3.75c0-1.81-1.01-2.19-1.86-2.19-.27,0-.54.06-.82.19-.23.11-.49.32-.79.64-.29-.55-.82-.83-1.58-.83-.48,0-.93.18-1.34.54v-.42h-1.34v5.82h1.35ZM19.13,10.83h-1.45c.08-.08.2-.18.36-.32.42-.35.69-.62.84-.82.16-.22.24-.48.24-.77,0-.32-.11-.6-.33-.81-.22-.22-.53-.33-.92-.33-.36,0-.67.11-.9.32-.23.21-.36.49-.39.84v.2s.82,0,.82,0v-.17c.02-.16.07-.28.15-.35.09-.08.19-.11.31-.11.15,0,.25.03.32.11.07.07.11.17.11.31,0,.17-.05.31-.15.45-.12.15-.34.36-.67.63-.36.29-.6.53-.74.74-.15.22-.23.45-.23.7v.19h2.62v-.77Z"/></g></svg>