<?xml version="1.0" encoding="UTF-8"?><svg id="b" xmlns="http://www.w3.org/2000/svg" viewBox="0 0 12 11.5"><defs><style>.d{fill:#000;stroke-width:0px;}</style></defs><g id="c"><path class="d" d="M11.97,4.35c-.08-.24-.29-.42-.55-.44l-3.46-.31L6.59.39c-.1-.24-.33-.39-.59-.39s-.49.15-.59.39l-1.37,3.21-3.46.31c-.25.02-.47.2-.55.44-.08.24,0,.51.19.68l2.62,2.3-.77,3.4c-.06.25.04.51.25.66.11.08.24.12.37.12.11,0,.23-.03.33-.09l2.99-1.79,2.99,1.79c.22.13.49.12.7-.03.21-.15.3-.41.25-.66l-.77-3.4,2.62-2.3c.19-.17.26-.43.19-.68Z"/></g></svg>