<?xml version="1.0" encoding="UTF-8"?><svg id="b" xmlns="http://www.w3.org/2000/svg" viewBox="0 0 15 15"><defs><style>.d{fill:#000;stroke-width:0px;}</style></defs><g id="c"><path class="d" d="M12.8,0H2.2C.99,0,0,.99,0,2.2v10.61c0,1.21.99,2.2,2.2,2.2h10.6c1.21,0,2.2-.99,2.2-2.2V2.2c0-1.21-.99-2.2-2.2-2.2ZM10.93,5.89v.93c-.44,0-.86-.09-1.26-.25-.26-.11-.5-.25-.72-.42v2.85c0,.64-.25,1.24-.71,1.7-.37.37-.85.6-1.36.68-.12.02-.24.03-.37.03-.55,0-1.07-.18-1.5-.51-.08-.06-.16-.13-.23-.2-.5-.49-.76-1.16-.71-1.86.03-.53.25-1.04.6-1.44.47-.53,1.13-.82,1.84-.82.12,0,.25,0,.37.03v1.29c-.12-.04-.24-.06-.36-.06-.65,0-1.17.53-1.16,1.17,0,.41.23.77.56.97.16.09.34.15.53.16.15,0,.29-.01.43-.06.46-.15.79-.58.79-1.1v-1.91s0-3.48,0-3.48h1.27c0,.13.01.25.04.37.1.48.37.9.75,1.19.33.25.74.4,1.19.4,0,0,0,0,0,0v.34h0Z"/></g></svg>