<?xml version="1.0" encoding="UTF-8"?><svg id="b" xmlns="http://www.w3.org/2000/svg" viewBox="0 0 22.99 23"><defs><style>.d{fill:#000;stroke-width:0px;}</style></defs><g id="c"><path class="d" d="M3.82,16.96l-1.58-2.13L0,23h3.82v-6.04ZM9.49,6.16L7.8,0h-1.47l-3.11,11.33,6.28-5.17ZM20.93,9.94v-4.87h-3.37v2.09l3.37,2.77ZM12.92,10.24l-7.74,6.37v6.39h4.21v-5.99c0-1.95,1.58-3.53,3.53-3.53s3.53,1.58,3.53,3.53v5.99h4.21v-6.38l-7.74-6.38ZM22.99,13.39L12.92,5.09,2.84,13.38l1.57,2.12,8.5-7,8.5,7,1.57-2.11ZM10.73,23h4.37v-5.99c0-1.2-.98-2.18-2.18-2.18s-2.18.98-2.18,2.18v5.99ZM13.59,16.49v1.35h-1.35v-1.35h1.35Z"/></g></svg>