<?xml version="1.0" encoding="UTF-8"?><svg id="b" xmlns="http://www.w3.org/2000/svg" viewBox="0 0 9 12"><defs><style>.d{fill:#000;stroke-width:0px;}</style></defs><g id="c"><path class="d" d="M2.46,11.99s-.16-.06-.16-.06c-.02,0-.04-.03-.04-.06v-5.69s-.04-.07-.08-.06L.08,6.87s-.08-.02-.08-.06c0-.08,0-.15,0-.23,0-.23,0-.44,0-.65,0-.09.13-.16.18-.18l.28-.1c.51-.19,1.05-.38,1.58-.55.21-.07.27-.15.24-.34,0-.02,0-.03,0-.05,0-.04-.04-.06-.08-.05L.08,5.42s-.08-.01-.08-.06C0,5.28,0,5.2,0,5.12c0-.23,0-.45,0-.66,0-.09.14-.16.18-.17.68-.24,1.37-.48,1.96-.69.09-.03.12-.05.12-.13,0-.88,0-1.78,0-2.64V.06s.03-.06.06-.06h1.19s.06.02.06.06c0,.04,0,.09,0,.13,0,.09,0,.19.01.29,0,.61,0,1.21,0,1.82v.69s.04.07.08.06l3.48-1.25s.08.01.08.06c0,.08,0,.16,0,.24,0,.22,0,.42,0,.62,0,.09-.12.18-.2.21-1.01.37-2.04.74-3.04,1.1l-.06.02c-.19.07-.29.1-.32.16-.03.05-.02.13,0,.26,0,.04.04.06.08.05l3.48-1.25s.08.01.08.06c0,.08,0,.15,0,.23,0,.22,0,.43,0,.65,0,.11-.22.19-.22.19-.66.24-1.33.48-1.98.71-.38.14-.76.27-1.14.41l-.08.03c-.12.04-.18.07-.21.09-.02.02-.01.05-.01.14,0,.04,0,.09,0,.16,0,1.1,0,2.22,0,3.3v1.32s.03.06.06.06c1.49-.11,3.98-1.66,4-4.59,0-.03.03-.06.06-.06h1.23s.06.03.06.07c-.01.11-.02.22-.03.33-.02.23-.04.48-.09.71-.52,2.65-2.6,4.58-5.28,4.91,0,0-.85.08-1.13.03h0Z"/></g></svg>