<?xml version="1.0" encoding="UTF-8"?><svg id="b" xmlns="http://www.w3.org/2000/svg" viewBox="0 0 10.84 13.6"><defs><style>.d{fill:#000;stroke-width:0px;}</style></defs><g id="c"><path class="d" d="M10.25,2.23l-1.88-1.73c-.34-.32-.79-.5-1.26-.5H1.85C.83,0,0,.83,0,1.85v9.89c0,1.02.83,1.85,1.85,1.85h7.13c1.02,0,1.85-.83,1.85-1.85V3.59c0-.52-.22-1.01-.59-1.36ZM3.57,4.66c1.53-1.53,1.48-1.49,1.54-1.52.09-.06.2-.1.31-.1h0c.15,0,.29.06.4.16.59.59,1.51,1.52,1.45,1.46.22.22.22.58,0,.8-.22.22-.58.22-.8,0l-.48-.48v2c0,.32-.26.57-.57.57s-.57-.25-.57-.57v-2l-.49.49c-.21.21-.57.23-.8,0-.22-.22-.22-.58,0-.8ZM7.62,10.56H3.22c-.31,0-.57-.26-.57-.57s.26-.57.57-.57h4.39c.31,0,.57.26.57.57s-.25.57-.57.57Z"/></g></svg>