<?xml version="1.0" encoding="UTF-8"?><svg id="b" xmlns="http://www.w3.org/2000/svg" viewBox="0 0 13.38 20"><defs><style>.d{fill:#000;stroke-width:0px;}</style></defs><g id="c"><path class="d" d="M8.93,20c-.4,0-.77-.16-1.05-.44-.28-.28-.44-.66-.44-1.05v-3.81s0-.05-.02-.08c-.01-.02-.03-.05-.05-.07l-1.13-1.06-.7,1.5c-.02.05-.05.1-.09.15l-2.65,3.54c-.11.18-.25.33-.43.44-.17.12-.36.2-.57.24-.29.06-.59.03-.87-.09-.28-.11-.51-.3-.68-.55C.1,18.49,0,18.2,0,17.9c0-.3.08-.59.24-.84l2.44-3.49s.02-.04.03-.06l1.6-5.66s.01-.07,0-.1c0-.03-.02-.06-.05-.09-.01-.01-.02-.02-.04-.03l-1.16,2.59c-.07.16-.17.3-.29.42-.12.12-.27.21-.43.28s-.33.09-.5.09c-.17,0-.34-.04-.5-.11-.16-.07-.3-.17-.42-.29-.12-.12-.21-.27-.28-.43-.06-.16-.09-.33-.09-.5,0-.17.04-.34.11-.5l1.53-3.4c.13-.25.32-.45.56-.58.01,0,.03-.01.04-.02l3.16-1.19c.21-.08.45-.07.65.02l1.96.87c.18.08.32.21.41.38l.55,1.05s.05.06.08.08l3.03,1.59c.16.08.3.2.42.33.12.14.2.3.26.47.05.17.07.35.06.53-.02.18-.07.35-.15.51-.08.16-.2.3-.33.42-.14.12-.3.2-.47.26-.17.05-.35.07-.53.06-.18-.02-.35-.07-.51-.15,0,0-1.87-1-2.85-1.52-.03-.01-.05-.02-.08-.02-.03,0-.06,0-.08.02-.03.01-.05.03-.07.05-.02.02-.03.05-.04.08l-.38,1.28s0,.06,0,.09c0,.03.02.06.03.08l2.31,3.17c.13.17.2.38.2.6v4.3c0,.4-.16.77-.44,1.05-.28.28-.66.44-1.05.44ZM6.14,12.62c.08,0,.17.03.23.09l1.47,1.37c.09.08.16.18.2.29.05.11.07.23.07.34v3.81c0,.11.02.22.06.32.04.1.1.19.18.27.08.08.17.14.27.18.1.04.21.06.32.06s.22-.02.32-.06c.1-.04.19-.1.27-.18.08-.08.14-.17.18-.27.04-.1.06-.21.06-.32v-4.3c0-.07-.02-.15-.07-.21l-2.31-3.17c-.08-.11-.13-.23-.15-.36-.02-.13-.02-.26.02-.39l.38-1.28c.04-.12.1-.24.18-.33.09-.1.19-.17.31-.22.12-.05.25-.07.37-.07.13,0,.25.04.37.1.97.52,2.84,1.51,2.84,1.51.08.04.18.07.27.08s.19,0,.28-.04c.09-.03.17-.08.24-.15.07-.06.13-.14.17-.23.07-.16.08-.35.02-.51-.06-.17-.18-.31-.34-.39h0s-3.03-1.59-3.03-1.59c-.15-.08-.28-.21-.36-.36l-.55-1.05s-.05-.07-.09-.09l-1.96-.87s-.1-.02-.15,0l-3.14,1.18c-.11.07-.2.16-.26.28l-1.52,3.38c-.03.08-.05.16-.05.25,0,.08.01.17.05.25.03.08.08.15.14.21s.13.11.21.14c.08.03.16.05.25.05.08,0,.17-.01.25-.05.08-.03.15-.08.21-.14s.11-.13.14-.21l1.26-2.82s.06-.09.1-.13.09-.06.14-.07c.14-.03.29-.02.43.03.14.05.26.13.36.24.1.11.17.24.2.38.03.14.03.29,0,.43l-1.6,5.66c-.03.09-.07.18-.12.26l-2.44,3.48c-.11.18-.15.4-.11.61.04.21.16.4.33.52.1.07.2.12.32.15.12.03.24.03.35,0,.12-.02.23-.07.33-.14.1-.07.18-.16.24-.26l2.66-3.57s.01-.02.02-.03l.9-1.91s.06-.09.1-.12c.04-.03.09-.05.14-.06.02,0,.04,0,.06,0ZM8.36,4.05c-.4,0-.79-.12-1.13-.34-.33-.22-.59-.54-.75-.91-.15-.37-.19-.78-.12-1.17.08-.39.27-.75.55-1.04.28-.28.64-.48,1.04-.55.39-.08.8-.04,1.17.12.37.15.69.41.91.75.22.33.34.73.34,1.13,0,.54-.21,1.05-.59,1.43-.38.38-.9.59-1.43.59ZM8.36.67c-.27,0-.53.08-.76.23-.22.15-.4.36-.5.61-.1.25-.13.52-.08.79.05.26.18.51.37.7.19.19.43.32.7.37.26.05.54.03.79-.08.25-.1.46-.28.61-.5.15-.22.23-.49.23-.76,0-.36-.14-.71-.4-.96-.26-.26-.6-.4-.96-.4Z"/></g></svg>