<?xml version="1.0" encoding="UTF-8"?><svg id="b" xmlns="http://www.w3.org/2000/svg" viewBox="0 0 15 15"><defs><style>.d{fill:#000;stroke-width:0px;}</style></defs><g id="c"><path class="d" d="M7.5,0h0C3.36,0,0,3.36,0,7.5c0,1.64.53,3.16,1.43,4.4l-.93,2.79,2.88-.92c1.19.79,2.6,1.24,4.13,1.24,4.14,0,7.5-3.36,7.5-7.5S11.64,0,7.5,0ZM11.87,10.59c-.18.51-.9.93-1.47,1.06-.39.08-.9.15-2.63-.56-2.2-.91-3.62-3.15-3.73-3.3-.11-.15-.89-1.19-.89-2.26s.55-1.6.77-1.83c.18-.18.48-.27.77-.27.09,0,.18,0,.25,0,.22,0,.33.02.48.37.18.44.62,1.51.67,1.62.05.11.11.26.03.41-.07.15-.13.22-.24.34-.11.13-.22.23-.33.36-.1.12-.22.25-.09.47.13.22.57.93,1.22,1.51.84.75,1.52.98,1.76,1.08.18.07.4.06.53-.08.17-.18.38-.48.59-.78.15-.21.34-.24.54-.16.2.07,1.27.6,1.49.71.22.11.37.16.42.26.05.09.05.53-.13,1.04Z"/></g></svg>