<?xml version="1.0" encoding="UTF-8"?><svg id="b" xmlns="http://www.w3.org/2000/svg" viewBox="0 0 19.59 19.69"><defs><style>.d{fill:#000;fill-rule:evenodd;stroke-width:0px;}</style></defs><g id="c"><path class="d" d="M16.74,2.86C14.9,1.02,12.45,0,9.84,0,4.46,0,.08,4.38.08,9.75c0,1.72.45,3.4,1.3,4.88l-1.38,5.06,5.17-1.36c1.43.78,3.03,1.19,4.66,1.19h0c5.38,0,9.75-4.38,9.76-9.76,0-2.61-1.01-5.06-2.85-6.9ZM9.84,17.87h0c-1.45,0-2.88-.39-4.13-1.13l-.3-.18-3.07.81.82-2.99-.19-.31c-.81-1.29-1.24-2.78-1.24-4.32,0-4.47,3.64-8.11,8.11-8.11,2.17,0,4.2.85,5.73,2.38,1.53,1.53,2.37,3.57,2.37,5.74,0,4.47-3.64,8.11-8.11,8.11ZM14.29,11.8c-.24-.12-1.44-.71-1.67-.79-.22-.08-.39-.12-.55.12-.16.24-.63.79-.77.96-.14.16-.28.18-.53.06-.24-.12-1.03-.38-1.96-1.21-.72-.65-1.21-1.44-1.36-1.69-.14-.24,0-.36.11-.5.26-.33.53-.67.61-.83.08-.16.04-.31-.02-.43-.06-.12-.55-1.32-.75-1.81-.2-.48-.4-.41-.55-.42-.14,0-.3,0-.47,0s-.43.06-.65.31c-.22.24-.85.83-.85,2.03s.87,2.36,1,2.52c.12.16,1.72,2.62,4.16,3.68.58.25,1.04.4,1.39.51.58.19,1.12.16,1.54.1.47-.07,1.44-.59,1.65-1.16.2-.57.2-1.06.14-1.16-.06-.1-.22-.16-.47-.28Z"/></g></svg>