<?xml version="1.0" encoding="UTF-8"?><svg id="b" xmlns="http://www.w3.org/2000/svg" viewBox="0 0 22 22"><defs><style>.d{fill:#000;stroke-width:0px;}</style></defs><g id="c"><path class="d" d="M15.06,17.95l-1.31-.55.18-1.41-.62-1.07-1.31-.55.18-1.41-1.06-1.83c1.16-1.49,1.37-3.6.37-5.34-.1-.17-.21-.34-.33-.5v-1.78c0-1.93-1.57-3.5-3.5-3.5s-3.35,1.42-3.49,3.23C1.81,3.54,0,5.54,0,7.98c0,2.01,1.24,3.73,2.99,4.44v7.99l1.6,1.59h2v-1.7l-.86-1.13.86-1.13v-1.24l-.86-1.13.86-1.13v-2.12c1.75-.71,2.99-2.43,2.99-4.44,0-2.42-1.8-4.42-4.13-4.75.13-1.09,1.07-1.94,2.2-1.94,1.22,0,2.21.99,2.21,2.22v.61c-.23-.14-.46-.26-.7-.36,1.1,1.14,1.71,2.64,1.71,4.23,0,1.23-.37,2.42-1.06,3.44-.46.67-1.05,1.24-1.72,1.68l3.9,6.76,2.19.59,1.74-1-.86-1.49ZM6.08,6.91c0,.71-.58,1.29-1.29,1.29s-1.29-.58-1.29-1.29.58-1.29,1.29-1.29,1.29.58,1.29,1.29ZM20.51,12.58l-1.41.18-.55-1.31-1.07-.62-1.41.18-.55-1.31-1.83-1.06c.22-1.6-.38-3.24-1.65-4.31.21.25.4.53.56.82.62,1.07.89,2.28.8,3.51-.07.89-.33,1.75-.77,2.52l.66,1.14.22.38h0s5.3,3.07,5.3,3.07l2.19-.59,1-1.73-1.49-.86Z"/></g></svg>